<?xml version="1.0" standalone="no"?><!DOCTYPE svg PUBLIC "-//W3C//DTD SVG 1.1//EN" "http://www.w3.org/Graphics/SVG/1.1/DTD/svg11.dtd"><svg class="icon" width="200px" height="200.00px" viewBox="0 0 1024 1024" version="1.1" xmlns="http://www.w3.org/2000/svg"><path d="M639.996 543.998c0 164.934-149.184 298.65-319.992 298.65S0.012 708.932 0.012 543.998s143.278-298.648 319.992-298.648 319.992 133.714 319.992 298.648z" fill="#DA4453" /><path d="M42.666 543.998c0-158.246 131.904-287.742 298.682-297.992a344.998 344.998 0 0 0-21.344-0.656C143.29 245.35 0.012 379.064 0.012 543.998s149.184 298.65 319.992 298.65c7.156 0 14.282-0.25 21.344-0.718-161.716-10.562-298.682-139.904-298.682-297.932z" opacity=".1" /><path d="M426.658 96.008c0-11.782-9.532-21.342-21.312-21.342a20.98 20.98 0 0 0-11.094 3.154l-0.032-0.032c-3.906 2.376-95.56 59.282-95.56 146.216h42.688c0-62.874 74.374-109.342 75.124-109.81 6.124-3.78 10.186-10.498 10.186-18.186z" fill="#688E2D" /><path d="M725.34 949.334c164.934 0 298.648-133.714 298.648-298.682H426.658c0 164.968 133.716 298.682 298.682 298.682z" fill="#ED5564" /><path d="M728.372 799.994c82.464 0 149.34-66.844 149.34-149.342H579.03c0 82.498 66.872 149.342 149.342 149.342z" fill="#FFFFFF" opacity=".2" /><path d="M646.246 678.246c-8.344 8.344-8.344 21.842 0 30.154 8.344 8.344 21.844 8.344 30.156 0 8.344-8.312 8.344-21.81 0-30.154-8.312-8.344-21.812-8.344-30.156 0zM710.246 678.246c-8.344 8.344-8.344 21.842 0 30.154 8.344 8.344 21.844 8.344 30.154 0 8.344-8.312 8.344-21.81 0-30.154-8.31-8.344-21.81-8.344-30.154 0zM774.244 678.246c-8.344 8.344-8.344 21.842 0 30.154 8.342 8.344 21.842 8.344 30.154 0 8.344-8.312 8.344-21.81 0-30.154-8.312-8.344-21.812-8.344-30.154 0zM688.902 742.244c-8.312 8.344-8.312 21.844 0 30.156a21.332 21.332 0 0 0 30.188 0c8.312-8.312 8.312-21.812 0-30.156a21.332 21.332 0 0 0-30.188 0zM752.9 742.244c-8.312 8.344-8.312 21.844 0 30.156a21.33 21.33 0 0 0 30.186 0c8.312-8.312 8.312-21.812 0-30.156a21.33 21.33 0 0 0-30.186 0z" fill="#ED5564" /><path d="M434.408 268.128c-33.562-13.06-82.53-61.998-98.56-79.748h-0.032a21.266 21.266 0 0 0-15.812-7.032c-6.844 0-12.938 3.25-16.844 8.25-0.594 0.75-59.842 76.53-118.998 99.904-7.874 3.124-13.498 10.812-13.498 19.844 0 11.782 9.562 21.312 21.342 21.312 2.782 0 5.406-0.532 7.844-1.5v0.032c0.094-0.062 0.218-0.094 0.344-0.156a0.426 0.426 0 0 1 0.188-0.062c33.25-13.282 65.218-38.844 89.842-62.344-0.062 22.156 3.594 39.812 10.906 52.656 0.094 0.156 0.188 0.344 0.312 0.532 0.062 0.124 0.156 0.282 0.218 0.438l0.032-0.032c3.718 6.25 10.532 10.438 18.312 10.438 11.782 0 21.344-9.532 21.344-21.312 0-4-1.124-7.718-3.032-10.906l0.032-0.032c-2.468-4.124-7.812-17.376-4.376-51.248a1030.89 1030.89 0 0 0 7.844 7.282c29.436 26.842 55.154 44.716 76.436 53.154 0.094 0.032 0.218 0.094 0.312 0.124a1.944 1.944 0 0 0 0.376 0.156c2.406 0.938 5 1.468 7.718 1.468 11.782 0 21.344-9.562 21.344-21.344 0-9.06-5.656-16.78-13.594-19.874z" fill="#76A336" /></svg>